<svg xmlns="http://www.w3.org/2000/svg" viewBox="0 0 480 128" fill="none">
  <!--
    True Joy Birthing — Wordmark White on Dark (Outlined)
    For footer, app store images, and dark backgrounds.
    Same layout as Primary but inverted colors. No font dependency.
  -->

  <!-- Icon mark (white + rose-500 on dark) -->
  <g transform="translate(16, 16)">
    <path d="M22 82 C16 72 12 58 16 44 C18 36 24 30 30 28"
      stroke="#FFFFFF" stroke-width="4.5" stroke-linecap="round" fill="none"/>
    <path d="M78 82 C84 72 88 58 84 44 C82 36 76 30 70 28"
      stroke="#FFFFFF" stroke-width="4.5" stroke-linecap="round" fill="none"/>
    <ellipse cx="50" cy="58" rx="12" ry="15" fill="#B87AA0"/>
    <path d="M50 74 C48 72 44 69 44 67 C44 64 47 63 49 64.5 L50 66 L51 64.5 C53 63 56 64 56 67 C56 69 52 72 50 74Z"
      fill="#FFFFFF" opacity="0.5"/>
  </g>

  <!-- "True Joy" — white on charcoal (outlined) -->
  <g fill="#FFFFFF">
<path d="M222 602Q161 602 118.5 561.5Q76 521 51 447Q50 444 45.0 444.5Q40 445 40 448Q42 462 44.0 487.5Q46 513 48.5 543.0Q51 573 52.5 601.0Q54 629 54 647Q54 652 59.5 652.0Q65 652 65 647Q65 637 75.5 632.5Q86 628 99.5 626.5Q113 625 122 625Q208 622 323 622Q393 622 435.0 623.5Q477 625 516 625Q552 625 570.5 629.5Q589 634 594 650Q595 654 600.5 654.0Q606 654 606 650Q604 634 602.5 605.5Q601 577 599.5 545.5Q598 514 597.0 487.5Q596 461 596 448Q596 445 591.0 445.0Q586 445 585 448Q570 527 528.5 564.5Q487 602 428 602Q408 602 397.5 596.5Q387 591 383.5 578.0Q380 565 380 542V81Q380 52 386.0 37.0Q392 22 409.5 17.0Q427 12 463 12Q466 12 466.0 6.0Q466 0 463 0Q435 0 400.0 1.0Q365 2 323 2Q283 2 248.0 1.0Q213 0 184 0Q181 0 181.0 6.0Q181 12 184 12Q219 12 237.0 17.0Q255 22 261.5 37.0Q268 52 268 81V544Q268 566 264.5 578.5Q261 591 251.0 596.5Q241 602 222 602Z" transform="translate(130.00,78.00) scale(0.052000) scale(1,-1)"/>
<path d="M161 271 153 284Q192 329 219.0 353.0Q246 377 265.0 386.5Q284 396 299 396Q320 396 342.5 380.5Q365 365 365 340Q365 319 352.5 305.5Q340 292 318 292Q297 292 286.5 303.0Q276 314 267.5 324.5Q259 335 243 335Q236 335 227.5 330.5Q219 326 203.5 312.5Q188 299 161 271ZM39 0Q36 0 36.0 6.0Q36 12 39 12Q70 12 81.0 26.5Q92 41 92 81V269Q92 300 85.0 314.5Q78 329 61 329Q52 329 40.0 325.5Q28 322 13 315Q9 313 7.0 319.0Q5 325 7 326L146 394Q152 396 153 396Q164 396 175.0 372.0Q186 348 186 303V81Q186 55 194.0 39.5Q202 24 221.5 18.0Q241 12 275 12Q279 12 279.0 6.0Q279 0 275 0Q248 0 213.5 1.0Q179 2 139 2Q111 2 85.0 1.0Q59 0 39 0Z" transform="translate(163.44,78.00) scale(0.052000) scale(1,-1)"/>
<path d="M192 -12Q137 -12 105.5 23.0Q74 58 74 113V260Q74 293 66.5 309.0Q59 325 43 325Q32 325 18 318Q14 317 11.5 323.0Q9 329 12 330L146 394Q149 395 151 395Q156 395 161.5 390.5Q167 386 167 382V161Q167 107 187.5 80.0Q208 53 250 53Q279 53 308.0 69.5Q337 86 354 111L360 99Q326 50 284.0 19.0Q242 -12 192 -12ZM428 382V116Q428 82 434.5 68.0Q441 54 456 54Q463 54 473.5 57.0Q484 60 497 65Q501 67 504.0 61.5Q507 56 504 54L366 -13Q364 -14 361 -14Q351 -14 343.0 11.0Q335 36 335 82V260Q335 293 327.5 309.0Q320 325 304 325Q293 325 278 318Q275 317 272.5 323.0Q270 329 273 330L407 394Q409 395 412 395Q417 395 422.5 390.5Q428 386 428 382Z" transform="translate(183.14,78.00) scale(0.052000) scale(1,-1)"/>
<path d="M235 -12Q170 -12 124.5 15.0Q79 42 55.5 86.5Q32 131 32 182Q32 241 61.0 289.0Q90 337 141.0 366.0Q192 395 258 395Q317 395 352.5 368.0Q388 341 388 280Q388 267 386.0 258.0Q384 249 377 249H281Q283 306 270.0 340.5Q257 375 220 375Q180 375 156.5 334.0Q133 293 133 225Q133 167 151.0 125.0Q169 83 204.0 60.0Q239 37 290 37Q320 37 340.5 44.5Q361 52 386 65Q388 67 391.5 63.0Q395 59 393 56Q356 19 317.5 3.5Q279 -12 235 -12ZM98 248 97 267 316 271V249Z" transform="translate(209.40,78.00) scale(0.052000) scale(1,-1)"/>
<path d="M298 625Q301 625 301.0 619.0Q301 613 298 613Q273 613 260.0 607.0Q247 601 243.0 586.0Q239 571 239 542V-4Q239 -116 183.5 -179.0Q128 -242 29 -242Q-8 -242 -32.5 -226.5Q-57 -211 -57 -182Q-57 -164 -45.0 -147.5Q-33 -131 -5 -131Q19 -131 32.0 -144.5Q45 -158 52.5 -176.0Q60 -194 66.5 -207.5Q73 -221 85 -221Q106 -221 116.0 -187.5Q126 -154 126 -74V544Q126 573 120.0 587.5Q114 602 96.0 607.5Q78 613 42 613Q40 613 40.0 619.0Q40 625 42 625Q73 625 108.0 623.5Q143 622 181 622Q216 622 245.5 623.5Q275 625 298 625Z" transform="translate(243.31,78.00) scale(0.052000) scale(1,-1)"/>
<path d="M237 -13Q174 -13 128.0 16.0Q82 45 57.0 93.5Q32 142 32 198Q32 250 52.0 288.0Q72 326 105.0 350.5Q138 375 177.0 387.0Q216 399 254 399Q318 399 363.5 369.0Q409 339 433.0 292.0Q457 245 457 192Q457 131 426.5 84.5Q396 38 346.0 12.5Q296 -13 237 -13ZM267 8Q307 8 327.0 47.0Q347 86 347 157Q347 230 328.5 279.0Q310 328 281.0 353.0Q252 378 220 378Q181 378 160.5 343.0Q140 308 140 235Q140 167 157.0 115.5Q174 64 203.0 36.0Q232 8 267 8Z" transform="translate(260.94,78.00) scale(0.052000) scale(1,-1)"/>
<path d="M441 386Q443 386 443.0 380.0Q443 374 441 374Q407 374 384.0 345.0Q361 316 343 267L232 -28Q196 -124 162.5 -179.5Q129 -235 95.0 -258.0Q61 -281 23 -281Q-6 -281 -22.5 -268.5Q-39 -256 -39 -232Q-39 -208 -24.5 -196.5Q-10 -185 9 -185Q26 -185 36.0 -191.5Q46 -198 56.0 -204.5Q66 -211 82 -211Q106 -211 126.0 -190.5Q146 -170 169.0 -120.5Q192 -71 223 15L220 -40L50 303Q28 347 15.5 360.5Q3 374 -15 374Q-18 374 -18.0 380.0Q-18 386 -15 386Q5 386 27.5 385.0Q50 384 70 384Q106 384 133.0 385.0Q160 386 182 386Q185 386 185.0 380.0Q185 374 182 374Q147 374 137.0 366.0Q127 358 138 335L265 75L229 16L316 268Q333 317 318.5 345.5Q304 374 263 374Q261 374 261.0 380.0Q261 386 263 386Q287 386 308.5 385.0Q330 384 364 384Q388 384 403.5 385.0Q419 386 441 386Z" transform="translate(286.36,78.00) scale(0.052000) scale(1,-1)"/>
  </g>

  <!-- "Birthing" — lavender-400 on charcoal (outlined) -->
  <g fill="#B9B7D4">
<path d="M83 0V654H292Q360 654 412.5 638.5Q465 623 495.5 588.0Q526 553 526 493Q526 443 502.5 404.5Q479 366 435 351V347Q493 335 526.5 298.5Q560 262 560 197Q560 130 527.5 86.0Q495 42 438.0 21.0Q381 0 309 0ZM199 384H282Q350 384 381.0 409.0Q412 434 412 476Q412 524 380.0 544.0Q348 564 284 564H199ZM199 90H297Q369 90 408.0 116.5Q447 143 447 198Q447 250 409.0 273.5Q371 297 297 297H199Z" transform="translate(342.00,78.00) scale(0.044000) scale(1,-1)"/>
<path d="M73 0V491H188V0ZM130 577Q100 577 80.5 595.0Q61 613 61 643Q61 673 80.5 690.5Q100 708 130 708Q161 708 180.0 690.5Q199 673 199 643Q199 613 180.0 595.0Q161 577 130 577Z" transform="translate(368.27,78.00) scale(0.044000) scale(1,-1)"/>
<path d="M73 0V491H168L176 404H180Q206 452 242.5 477.5Q279 503 319 503Q338 503 351.0 501.0Q364 499 375 493L352 395Q340 398 330.0 399.5Q320 401 304 401Q275 401 243.0 378.5Q211 356 188 300V0Z" transform="translate(379.80,78.00) scale(0.044000) scale(1,-1)"/>
<path d="M246 -10Q161 -10 125.5 39.5Q90 89 90 168V400H20V486L96 491L110 645H206V491H331V400H206V168Q206 125 223.0 103.5Q240 82 275 82Q288 82 301.0 84.0Q314 86 326 92L347 11Q328 2 302.0 -4.0Q276 -10 246 -10Z" transform="translate(396.21,78.00) scale(0.044000) scale(1,-1)"/>
<path d="M73 0V706H188V524L184 429Q215 458 253.0 480.5Q291 503 341 503Q420 503 456.0 452.0Q492 401 492 308V0H377V293Q377 354 359.0 379.0Q341 404 300 404Q268 404 243.5 388.5Q219 373 188 343V0Z" transform="translate(412.09,78.00) scale(0.044000) scale(1,-1)"/>
<path d="M73 0V491H188V0ZM130 577Q100 577 80.5 595.0Q61 613 61 643Q61 673 80.5 690.5Q100 708 130 708Q161 708 180.0 690.5Q199 673 199 643Q199 613 180.0 595.0Q161 577 130 577Z" transform="translate(436.64,78.00) scale(0.044000) scale(1,-1)"/>
<path d="M73 0V491H168L176 425H180Q213 457 252.0 480.0Q291 503 341 503Q420 503 456.0 452.0Q492 401 492 308V0H377V293Q377 354 359.0 379.0Q341 404 300 404Q268 404 243.5 388.5Q219 373 188 343V0Z" transform="translate(448.17,78.00) scale(0.044000) scale(1,-1)"/>
<path d="M244 -217Q185 -217 139.0 -203.0Q93 -189 66.5 -160.5Q40 -132 40 -89Q40 -58 58.5 -31.5Q77 -5 110 16V20Q92 32 79.0 52.0Q66 72 66 102Q66 130 82.5 154.0Q99 178 120 193V197Q95 216 75.5 250.0Q56 284 56 327Q56 383 83.0 422.5Q110 462 154.0 482.5Q198 503 250 503Q270 503 289.0 500.0Q308 497 322 491H498V406H406V402Q420 387 428.0 367.5Q436 348 436 322Q436 268 411.0 231.0Q386 194 344.0 175.0Q302 156 250 156Q234 156 217.0 159.0Q200 162 183 169Q173 159 166.0 149.0Q159 139 159 122Q159 101 177.0 89.0Q195 77 239 77H326Q415 77 460.5 48.5Q506 20 506 -44Q506 -92 474.0 -131.5Q442 -171 383.0 -194.0Q324 -217 244 -217ZM250 228Q273 228 292.5 239.5Q312 251 323.5 273.5Q335 296 335 327Q335 374 310.5 399.0Q286 424 250 424Q214 424 189.0 399.0Q164 374 164 327Q164 296 176.0 273.5Q188 251 207.0 239.5Q226 228 250 228ZM262 -142Q301 -142 331.0 -131.5Q361 -121 378.0 -102.5Q395 -84 395 -63Q395 -34 372.5 -24.0Q350 -14 308 -14H241Q221 -14 205.0 -12.0Q189 -10 174 -7Q155 -22 145.5 -38.0Q136 -54 136 -72Q136 -105 170.0 -123.5Q204 -142 262 -142Z" transform="translate(472.81,78.00) scale(0.044000) scale(1,-1)"/>
  </g>
</svg>