<?xml version="1.0" encoding="UTF-8"?>
<svg xmlns="http://www.w3.org/2000/svg" version="1.1" viewBox="0 0 579.12 256.08">
  <!-- Generator: Adobe Illustrator 30.3.0, SVG Export Plug-In . SVG Version: 2.1.3 Build 182)  -->
  <defs>
    <style>
      .st0 {
        fill: #edcedf;
      }

      .st1 {
        fill: #e0deed;
      }

      .st2 {
        fill: #ebcbdd;
      }

      .st3 {
        fill: #eccedf;
      }

      .st4 {
        fill: #e7c1d7;
      }

      .st5 {
        fill: #e4b8d1;
      }

      .st6 {
        fill: #eccdde;
      }

      .st7 {
        fill: #e6bed5;
      }

      .st8 {
        fill: #e5bbd3;
      }

      .st9 {
        fill: #e6bdd4;
      }

      .st10 {
        fill: #ebcadc;
      }

      .st11 {
        fill: #eac8db;
      }

      .st12 {
        fill: #edcfe0;
      }

      .st13 {
        fill: #edd1e1;
      }

      .st14 {
        fill: #e8c0d6;
      }

      .st15 {
        fill: #e9c6da;
      }

      .st16 {
        fill: #e6bcd4;
      }

      .st17 {
        fill: #a6a6c4;
      }

      .st18 {
        fill: #eac9dc;
      }

      .st19 {
        fill: #e3b3ce;
      }

      .st20 {
        fill: #db9ec0;
      }

      .st21 {
        fill: #e9c4d8;
      }

      .st22 {
        fill: #a7a7c4;
      }

      .st23 {
        fill: #e9c5d9;
      }

      .st24 {
        fill: #e4b7d0;
      }

      .st25 {
        fill: #ecccde;
      }

      .st26 {
        fill: #d8d5e9;
      }

      .st27 {
        fill: #bab6d9;
      }

      .st28 {
        fill: #e5b9d2;
      }

      .st29 {
        fill: #e4b6d0;
      }

      .st30 {
        fill: #e6bbd3;
      }

      .st31 {
        fill: #e2b3cd;
      }

      .st32 {
        fill: #edd0e0;
      }

      .st33 {
        fill: #e6bcd3;
      }
    </style>
  </defs>
  <g id="Layer_3_xA0_Image">
    <g>
      <path class="st27" d="M110.84,253.68h-1.44l6.4-15.67c2.99-8.35,5.13-17.68,4.47-26.54-.8-10.55-4.76-20.62-11.87-28.43-7.22-7.94-15.61-11.44-25.8-14.33,3.69-8.22,5.74-15.32,1.29-23.33-1.85-3.35-4.15-6.26-6.62-9.17l-2.99-3.51-2.07-2.25-2.89-3.12-5.25-5.51-4.09-4.32-5.06-5.27c-6.02-6.28-9.43-12.81-4.94-21.01.61-1.12.88-2.14,1.88-3.05.1,6.51-.08,11.06,4.09,16.11l1.08,1.31c1.11,1.34,2.29,2.47,3.59,3.64l2.77,2.48,8.8,7.03c3.64,2.91,7.41,5.41,10.72,8.71l6.46,6.46c4.42,4.96,8.38,11.92,8.23,18.59l-1.42,9.2,10.18,4.41c5.72,2.78,10.82,6.34,15.04,11.07,6.65,7.45,9.72,14.73,10.46,24.77v8.03c-.34,4.88-1.27,9.48-2.57,14.19-1.18,4.28-2.89,8.16-4.95,12.06-3.03,5.71-6.86,10.65-11.46,15.11l-2.04,2.33Z"/>
      <path class="st20" d="M495.56,146.92c-6.58,1.85-8.36-4.49-8.68-4.46-.6.06-4.49,5.6-12.22,4.42-3.02-.46-5.11-2.68-5.21-5.62-.21-5.88,3.02-12.04,6.03-17.05,1.52-2.52,3.17-4.84,4.2-7.81-7.73,3.44-13.7,10.12-17.44,17.35l-3.35,6.48-1.92,4.34c-.34.78-1,1.97-2.12,1.62-.82-.26-1.32-1.43-2.21-1.94-4.38,2.96-8.8,4.69-12.62.5l-2.43-3.21c-.6,1.14-1.49,1.7-2.32,2.41-2.58,2.21-5.73,3.41-9.11,2.96s-5.86-2.76-6.42-6.07c-.53-3.07.08-6.07,1.32-8.94,1.11-2.55,2.72-4.7,4.24-7.02l3.75-5.75c-2.07,1.09-3.88,1.97-6.12,2.18-.7.06-1.34.06-2.03.43-1.33,3.1-3.1,5.85-4.88,8.72s-3.46,5.79-5.79,8.41c-2.55,2.86-5.61,5.17-8.94,7.08-1.85,1.06-3.97,1.64-6.03,1.12s-3.44-2.37-4.03-4.36c-1.62-5.48,1.66-11.83,4.09-17.1,1.75-3.81,3.81-7.33,6.44-10.57.72-.89,2.02-1.94,3.19-1.84,3.29,2.48.79,8.58-1.28,12.37l-5.14,9.44c-1.57,2.88-3,8.03-.92,8.93,1.16.51,2.64-.09,3.66-.64,5.76-3.13,11.31-11.18,14.28-17.13,1.54-3.08,2.19-5.15-.46-7.58-.24-4.86,3.41-11.44,7.94-12.5,1.27-.3,2.08,2.15,1.76,3.63l-1.11,5.15c-.13.63-.19,1.25.06,1.9,1.15.07,2.19-.48,3.2-1.06,2.34-1.32,6.36-4.03,7.91-2.69,2.21,1.9,2.62,5.04,1.33,7.67-2.02,4.11-6.82,8.1-9.45,14.49-1.82,4.4-1.23,9.45,1.28,9.34,1.81-.08,3.35-1.54,4.59-2.74,4.07-3.95,6.44-10.9,8.66-16.29l3.34-6.74,3.08-5.74-4.02-1.65c-.58-.24-1.79-1.07-1.72-1.76.27-.91,1.76-.98,2.5-1.07l2.81-.34,3.39-.17,2.09-3.95c1.29-2.43,2.63-4.74,4.44-6.82.42-.48.8-.72,1.41-.7,2.17.06,1.65,7.1.04,10.34l3.44,1.05c.91.28,1.97,1.76,1.8,2.7-.8.98-2.5,1.07-3.69,1.08h-3.86c-5.04,7.36-9.63,15.68-12.25,24.18-.62,2.01-.89,3.92-.67,5.99.19,1.81,1.94,2.86,3.81,2.35,2.56-.71,4.47-2.82,5.79-5.15l4.18-9,2.87-5.76,5.07-8.88,12.58-20.44,3.72-4.72c.58-.73,1.86-.97,2.5-.19,4.14,5.03-6.82,19.87-10.65,25.42-.45.2-.02.69.19.26l5.01-3.22c1.6-1.03,3.77-.85,5.32.21,2.85,1.96,2.08,7.22.13,10.71l-4.82,8.6c-1.7,3.03-4.63,9.72-2.74,11.27.56.46,1.59,1,2.49.67,3.79-1.38,7.58-6.67,9.29-10.58l3.36-7.66,4.21-7.52c1.42-2.54,4.18-6.69,5.95-5.15.9.79.62,2.13.74,3.15.25,2.15-.05,4.07-1.01,5.99l-2.48,4.95-3.91,7.32c-1.44,2.7-3.28,8.1-1.27,9.31,1.46.88,3.38-.23,4.56-1.15,3.34-2.61,5.45-7.97,7.27-11.7l2.13-4.38c2.2-4.53,4.8-8.72,7.8-12.81.54-.73,1.45-1.98,2.44-1.79,2.59,1.48,1.17,4.83,2.07,7.44,1.74-2.03,3.87-3.54,5.91-5.29,2.41-2.07,5.2-3.18,7.49-1.1,1.46,1.33,1.99,2.9,1.88,4.93-.09,1.64-.46,3.27-1.28,4.74l-4.36,7.85c-2.2,3.97-5.55,8.65-3.63,12.63,1.46,3.01,7.67-1.44,10.25-6.99l3.5-7.52c2.78-5.22,6.39-9.79,11.11-13.33,3.09-2.33,8.69-4.91,11.64-2.87,1.38.95,2.05,2.35,2.64,3.86-.04.29.23.44.33.24.53-1.71,1.1-3.27,2.35-4.47.77-.74,2.08-.27,2.59.65,1.34,2.41.14,7.33-1.24,10.12l-7.18,14.57-3.34,7.18c4.68-1.79,8.95-5.55,12.05-9.24,1.28-1.52,2.95-3.72,3.9-2.95s-1,5.13-2.62,6.88l-2.05,2.22c-1.61,1.74-3.45,3.08-5.54,4.11l-4.51,2.22c-3.48,1.71-3.2,2.02-4.94,5.58l-6.29,12.87c-2.43,4.96-10.66,15.12-14.91,8.93-4.8-7-1.86-15.34,4.68-20.55,2.86-2.28,5.87-3.95,9.15-5.48,2.35-1.09,3.83-3.04,4.2-5.62-2.2,1.52-4.44,2.94-7.19,3.32-2.03.28-4.14-.71-5.3-2.29l-2.21-3.01-2.35,2.19c-2.66,2.48-6.27,3.83-9.93,3.27-1.6-.24-3.45-.69-4.44-2.03-2.33-3.19-.89-10.1,1.1-14.02l2.75-5.42,3.44-6.15,1.37-2.73.22-.36c.04-.07-.28-.19-.45-.12l-2.56,1.05c-6.61,3.8-14.41,15.41-17.67,22.6l-2.62,5.77c-.28.62-1.19,1.07-1.75.7-.9-.6-1.44-1.43-2.08-2.32-2.12,1.18-4.2,2.18-6.51,2.83ZM556.8,118.9c-.34.24-.81.25-.95.76-.07.23-.33.34-.46.49-.82.23-1.46.98-1.93,1.66-.22.31-.38.54-.73.73-.55.3-1.1.79-1.19,1.44-.16.13-.25.37-.49.48-.48.21-.93.65-.96,1.18-.41.19-.71.5-.72.96-.46.18-.62.52-.75.96-.16.5-.52,1.1-.94,1.42s-.66.68-.71,1.23c-.01.16-.13.36-.19.5-.17.01-.35.1-.44.29l-1.78,4c-.29.66-.54,1.27-.48,1.92.03.32-.04.7-.25.95-.3.34-.23.77-.23,1.21v.72c-.36.6-.36,1.56,0,2.16v.72c0,.24,0,.47.11.72s.44.17.61.25c1.79.77,2.91-1.05,3.84-1.2.65-.11,1.12-.65,1.44-1.21.24-.41.55-.72.96-.96.54-.32,1.11-.79,1.2-1.43l.25-.24c.43-.16.63-.52.75-.96.08-.3.42-.8.69-.93.45-.23.55-.58.8-.93,2.84-4.09,5.19-8.55,7.09-13.26l.02-.71c.02-.7.24-1.48.53-2.14.23-.53.41-1.21-.04-1.7v-.24c0-.3-.14-.58-.34-.74-.27-.22-.56-.22-.85-.23-.57-.01-1.07.22-1.59.58l-2.26,1.56ZM547.21,152.96c-.49.23-.83.61-1.2.97l-.24.24c-.58.04-.92.49-1.21.96-.26.43-.7,1.01-1.19,1.16-.64.2-1.07.56-1.23,1.24-.09.39-.57.77-.93.95-.4.2-.73.5-.7,1l-2.39,3.57c-.68.37-.95,1.2-.97,1.93l-.28.47c-.71,1.17-1.42,3.43-1.14,4.32l-.18,1.03c-.05.31.05.58.18.74s.56.27.7.14l2.12-2.19c.38-.24.51-.55.77-.94l2.22-3.36c.28-.43.46-.99.86-1.21s.58-.76.72-1.17c.17-.51.28-1.1.75-1.42.54-.37.83-1.04.94-1.69.13-.74.54-1.35.97-1.94.95-1.3,1.49-2.94,2.21-4.53.1-.23-.11-.53-.29-.5l-.49.23Z"/>
      <path class="st20" d="M231.24,115.83c4.15,4.78-.27,12.32-5.05,15.99-4.16,3.19-8.48,2.2-12.9-.28-.81,3.41-1.21,7.04.05,10.08,2.55,6.11,13.41,1.17,17.75-5.35,1.28-1.93,4.06-5.02,4.55-3.98.44.94.14,1.98-.33,2.97-5.45,11.37-20.91,15.14-26.85,8.15l-2.13-3.13-4.09,4.04c-2.03,1.56-4.15,2.7-6.73,2.92s-5.24-.52-6.79-2.53c-1.04-1.35-.99-3.31-1.66-4.92l-4.12,3.99c-1.83,1.77-4.07,3.06-6.7,3.37s-4.74-1.59-5.72-4.01c-2.4,2.09-5.13,3.74-8.29,4.12-3.74.45-6.8-1.53-7.66-5.17-.77-3.27-.28-6.56,1.23-9.63,1.6-3.24,3.6-6.16,5.86-8.99l2.23-2.4c-2.79,1.04-5.45,1.38-8.37,1.78l-8.42,14.8-1.49,2.82-2.84,7.27c-.22.57-.67,1.41-1.4,1.17-3.49-1.16-2.84-7.66-1.24-10.28l5.09-8.33c1.69-2.77,3.61-5.26,5.67-7.71-2.57-6.46.6-11.25,6.24-14.63.46.17,1.21.25,1.49.65.96,1.35.81,3.03.44,4.58l-1.25,5.36,7.73-3.67c.82-.39,2.06-.82,2.86-.25,2.79,2,3.05,5.62,1.21,8.42-1.51,2.32-3.22,4.34-5.06,6.45-3.17,3.64-5.14,8.04-4.77,12.93.11,1.44,1.18,2.35,2.62,2.2,1.89-.2,3.44-1.18,4.58-2.65,1.22-1.58,2.14-3.2,2.88-5.04l2.62-6.49c1.67-4.13,10.3-22.24,13.38-17.43,2.21,3.46-.74,8.91-2.82,12.65l-5.22,9.37c-1.36,2.44-2.47,7.15-.8,8.37,2.29,1.67,6.66-3.81,8.59-6.56,3.61-5.13,6.61-10.46,9.69-15.93,1.84-3.26,3.48-6.42,5.68-9.46.25-.35,1-.26,1.3,0,2.66,2.26,1.73,8.37.16,11.08l-4.65,8.04-3.2,6.39c-1.14,2.28-1.9,6.37-.52,7.27,1.8,1.16,5.22-1.48,7.13-3.53,2.94-3.17,4.51-7.08,5.57-11.24,1.23-4.83,3.91-9.02,7.35-12.49,1.85-1.87,3.73-3.43,6.1-4.48,3.53-1.56,7.36-.83,9.9,2.08l1.11,1.28ZM223.08,126.1c2.1-2.49,5.63-7.46,4.72-9.94-.33-.88-1.32-.66-1.93-.22-3.76,2.66-7.18,5.58-9.81,9.37-.8,1.15-1.66,2.46-1.53,3.91.08.88,1.39,1.05,2.08,1.02,2.44-.11,4.86-2.23,6.47-4.13Z"/>
      <path class="st27" d="M8.62,172.63c.16-.4.18-.82.08-1.24.23-.82.24-1.69.16-2.58-.12-1.41.16-2.71.2-4.06.06-1.65.12-3.18.22-4.81l.24-3.83.22-3.37.25-3.82.23-3.13.25-4.31.24-4.08.23-3.13c.44-5.97,1.29-11.76,2.93-17.51,2.69-9.41,8.58-17.28,17.82-20.79.68-.26,1.28-.53,2-.11-.99,1.1-1.89,1.96-2.95,2.76-4.32,3.22-6.99,8.76-8.61,13.94-1.72,5.5-2.16,11.09-2.39,16.8l-.23,5.98-.21,7.21-.23,11.98v12.48s.17,7.54.17,7.54l.2,2.67.6,5.62c.24,2.27,2.47,3.79,4.75,4.09,3.46.45,6.82-.15,10.19-1.12l13.06-3.72c6-1.71,12.58-2.1,18.04.97,2.95,1.65,5.48,3.66,7.85,6.07s4.71,4.78,6.13,7.93c-3.09-2.12-5.52-4.21-8.68-5.62-2.77-1.24-5.74-1.9-8.78-2.01-8.86-.3-13.49,2.51-20.91,5.48l-9.1,3.64c-3.18,1.27-6.35,1.62-9.86,1.47-3.89-.17-7.78-1.73-10.45-4.65-2.29-2.51-3.43-5.76-3.78-9.16l-.09-9.25c-.01-1.48.39-2.88.18-4.3Z"/>
      <path class="st20" d="M347.97,132.36c.27,5.43-6.59,11.56-11.34,13.7l-4.44,2c-1.64.74-2.36,1.71-3.05,3.28l-4.24,9.63c-2.93,6.66-7.07,13.96-14.22,16.33-1.69-.84-3.49-1.72-4.37-3.42-3.01-5.78-.95-12.45,3.52-17.2,5.04-5.36,10.96-6.56,13.94-9.54,1.03-1.04,1.46-2.56,1.81-4.03-4.23,3.28-10.01,6.56-12.88,1.58-1.17-2.03-1.56-4.41-1.03-6.79.63-3.75,2.08-7.15,3.82-10.63l-6.56,1.34c-.86,2.61-1.76,5.01-3.09,7.31-1.87,3.56-4.2,6.73-7.53,8.99s-7.19,2.63-10.52.8c-6.32-3.48-6.76-11.01-4.51-17.48,1.63-4.69,4.38-8.7,8.04-12.13,2.35-2.21,5.26-3.79,8.59-4.09,3.77-.34,8.09,4.92,9.26,8.85.49,1.67.35,3.25.16,4.9,3.85-.94,6.85-3.08,9.33-5.82l3.97-4.95c.79-.98,1.99-2.67,3.33-2.64,2.13.05,2.48,3.77,1.68,6.5-.75,2.54-2.05,4.69-3.26,7.05l-5.55,10.74c-.88,1.71-1.39,3.59-1.37,5.48.02,1.23,1.2,2.04,2.32,1.71,2.36-.7,6.34-5.42,7.66-7.72l9.78-17.02,2.79-4.94c.55-.97,1.76-2.19,3.04-1.85s1.48,2.13,1.51,3.23c.13,4.56-2.95,9.44-4.88,13.42l-7.65,15.73c4.14-1.99,8.92-5.82,11.73-9.24l2.28-2.77c.33-.4,1.68-.91,1.96-.31ZM301.53,119.32c-.18.57-.46,1.15,0,1.74.19,1.13.72,2.21,1.74,3.03.56-.78.74-1.57.99-2.41.28-.96.33-1.99.03-2.95-.21-.68-.29-1.41-.75-2.08-1.27.51-1.64,1.56-2,2.67ZM287.35,137.52c-.13.95-.38,1.75-.05,2.76.27.82.3,1.95,1.04,2.67,1.49,1.05,4.5-.39,5.8-1.71l2.96-3c2.63-3.47,4.4-7.26,5.99-11.32-1.22-.65-1.85-1.47-2.6-2.38-1.47-1.76-2.79-3.54-3.72-5.74l-4.62,6.32c-2.71,3.71-4.17,7.88-4.8,12.4ZM317.41,155.31c-.83.21-.88.73-1.27,1.25l-4.35,5.68c-1.55,2.03-3.83,7.84-2.49,10.21l2.13-2.18c.43-.44.64-.99,1.17-1.24s.89-.81,1.25-1.4c.25-.04.18-.32-.1-.3l4.8-7.47c1.49-2.32,2.55-4.83,3.01-7.64-1.02.03-1.48.83-2.09,1.34l-2.04,1.74Z"/>
      <path class="st27" d="M37.74,23.29c-.42-.42-1.31-1.42-.83-1.97,3.34-3.12,6.89-5.84,11.43-7.74-6.44-.78-12.75,1.12-17.75,5.27l-4.53,4.54c-3.67,4.35-6.19,9.21-8.02,14.56-1.67,4.89-2.84,9.71-3.32,14.87l-.08,5.93c-.09.96-.17,1.92-.24,2.88l-.11.5c-.49-.08-.7-.51-.63-1.31-.1.36-.23.57-.67.58l-.81-6.48-.24-4.06c-.4-6.68.43-14.91,2.64-21.18s5.86-11.96,10.98-16.35c7.49-6.42,17.53-9.25,27.23-7.58,1.9.33,3.16,2.22,4.83,2.85l5.24,1.97c4.84,1.82,7.99,4.96,8.49,10.23.56,5.94-.46,11.79-2.78,17.31-1.38,3.29-3.11,6.28-5.62,8.8l-4.89,4.9-6.94,6.04-12.73,10.51-6.04,5.27-7.64,7.66c-6.14,6.16-8.78,13.62-11.05,22.08-.43-1.99-.34-3.81-.13-5.68,1.08-9.81,3.62-16.45,10.69-23.59l5.97-6.02,2.64-2.4,1.91-1.69,11.58-9.97,2.14-1.96,2.64-2.39,5.85-5.89c4.06-4.09,6.62-9.69,7.27-15.47v-3.86c0-1.91-1.02-4.06-2.56-5.26-5.89-4.6-17.78.37-23.95,4.11Z"/>
      <path class="st20" d="M381.29,141.75c-4.46,2.82-9.42,5.01-14.69,5.3-4.6.26-11.35-3.9-10.27-8.35l1.55-6.4,3.3-8.47,4.39-8.78c2.24-4.47,4.83-8.6,7.8-12.54-2.63-.62-5.67-2.08-5.59-4.41,1.92-1.11,3.94-1.75,6.08-2.35l12.18-3.38,3.34-.32c2.85-.27,5.85.84,7.54,3.26s2.13,5.49,2.06,8.53c-.08,3.93-1.59,7.54-4.11,10.54-2.84,3.39-6.29,5.98-10.2,8.01l-1.81.94,2.79,2.88c3.26,3.37,1.81,10.04-2.23,13.65l-2.13,1.9ZM395.34,102.23c.16-.57.32-1.13.04-1.73l-.78-1.65c-1.48-1.06-3.29-.85-5.01-.56-3.57.62-6.87,1.72-10.26,2.92-.21,2.64-1.01,4.95-2.08,7.32l-3.9,6.87c-.98,1.74-2.04,3.26-2.82,5.38,1.58-.18,3.08-.62,4.51-1.28l6.09-2.8c3.87-1.78,7.37-4.32,10.24-7.44,1.53-1.66,2.56-3.44,3.5-5.43l.45-1.6ZM375.92,125.65l-2.4.07-5.98-.07c-.17,0-.27.14-.22.25l-3.24,7.08c-1.32,2.87-2.29,5.79-2.56,9.02-.01.3.76.22,1.01.2.44-.04,1.27.18,1.64-.23,4.93-.1,12.17-3.78,15.81-7.45,2.25-2.27,4.15-6.22,2-7.72-1.26-.88-2.71-1.16-4.13-1.16-.51-.37-1.41-.37-1.92,0Z"/>
      <path class="st20" d="M248.23,126.65c.83-.64,2.16-1.34,3.05-.87.66.44.35,1.7.25,2.35l-1.33,8.09c-.32,1.92-.55,4.06.43,5.86,1.52,2.77,5.89,2.7,9.12-.19,2.74-2.46,4.81-5.27,6.71-8.41l4.19-8.03,1.94-4.08,3.99-7.99,6.08-12.1,1.35-2.75c1.06-2.16,2.26-4.33,4.24-5.87.9-.7,3.06,1.82,2.3,6.86-.37,2.45-1.46,4.45-2.45,6.66l-4.75,10.62-2.06,4.4-2.41,4.81c-2.49,4.97-5.2,9.73-8.78,13.97l-3.21,3.31c-2.86,2.41-6.16,4.06-9.94,4.23-4.46.2-8.82-1.3-11.32-5.04-2.93-4.39-2.04-12.22,2.6-15.82Z"/>
      <path class="st20" d="M131.53,139.47l-2.52,5.32c-.27.58-.85,1.43-1.67,1.37-.75-.05-1.82-1.22-1.82-2.03l.02-4.06c.85-4.52,2.52-8.61,4.46-12.81,4.14-8.95,9.02-17.25,14.11-25.83l-4.71.48c-4.46.45-8.45-1.95-10.11-6.15l3.37-.14c1.24-.05,2.36-.12,3.61-.25l2.39-.24,14.62-1.9c4.95-.64,12.85-.12,12.96,5.04-1.5.81-3.93.6-5.78.77l-2.38.22c-2.55.23-5.16.23-7.68,1.04.08,1.08-.03,2.09-.38,3.14-1.17,3.48-2.77,6.61-4.56,9.82l-6.71,11.98-1.36,2.5-5.87,11.73Z"/>
      <path class="st27" d="M64.95,87.97c-.28-.57-.26-1.05.09-1.42-.54-.19-.74-.44-.33-.91,2.63.27,5.53-1.14,6.77-3.64,1.88-3.81,2.88-7.84,3.92-11.92l.74-2.9c.53-2.09,1.27-4.29,1.08-6.52-.28-3.13-1.06-6.06-1.06-9.25l.04-21.55c2.82,5.01,3.87,10.35,4.19,15.68l.19,3.12.11,5.95c.31,2.74.81,5.27,1.43,7.97-1.49,4.06-2.26,8.11-2.8,12.37-.36,2.83-.87,5.56-2.27,8.05-.93,1.65-2.32,3.23-4.03,4.09-2.48,1.25-5.39,1.45-8.05.88Z"/>
      <path class="st20" d="M409.37,113.3c-1.63.45-4.58-2.62-4.25-6.17.14-1.51.98-3.08,2.52-3.48.88-.22,2.27.15,2.88.82,1.14,1.24,1.94,3.07,1.75,4.72-.2,1.74-1.15,3.62-2.91,4.1Z"/>
      <path class="st20" d="M505.91,113.04c-1.75.66-3.64-.72-4.21-2.33-.9-2.57-.11-5.31,1.92-7.08,2.16.01,4.01,1.27,4.69,3.38.72,2.23-.1,5.17-2.39,6.04Z"/>
      <path class="st17" d="M64.71,85.64c.16.52.83.54,1.59.68-.37.55-.85.6-1.29.84.18.12.55.36.53.47-.03.15-.44.27-.59.34-2.81-.61-5.31-1.74-8.1-2.66.3-.64.8-.38,1.35-.33l6.52.66Z"/>
      <path class="st17" d="M37.74,23.29l-3.38,2.89c-.71.79-1.42,1.53-2.4,1.94.99-2.86,2.92-4.9,4.95-6.8l.71,1.04c.22.32.24.62.12.93Z"/>
      <path class="st22" d="M14.29,62.12c.22,1.99.63,4.07,0,6.07-.82-1.31-.81-2.67-.97-3.99l-.32-2.82.84-3.41.47,4.15Z"/>
      <path class="st1" d="M14.4,61.63v-2.42c-.01-.26.08-.43.24-.46v2.42c.01.26-.08.43-.24.46Z"/>
      <path class="st26" d="M8.62,172.63c-.05-.34-.02-.86.08-1.24.3.29.3,1-.08,1.24Z"/>
      <path class="st29" d="M554.25,135.77c2.58-4.57,5.21-9.08,7.11-13.97l-.02.71c-1.9,4.72-4.24,9.17-7.09,13.26Z"/>
      <path class="st11" d="M544.09,136.92c-.06-.65.18-1.26.48-1.92l1.78-4c.08-.19.27-.27.44-.29l-2.69,6.21Z"/>
      <path class="st8" d="M538.54,169.49l-2.12,2.19c.34-.89,1.27-1.8,2.12-2.19Z"/>
      <path class="st12" d="M535.73,169.77c-.28-.89.43-3.15,1.14-4.32l-1.14,4.32Z"/>
      <path class="st19" d="M545.78,157.76c.19-1.66,1.77-3.15,1.92-5.03.17-.02.39.27.29.5-.72,1.58-1.26,3.23-2.21,4.53Z"/>
      <path class="st6" d="M555.39,120.14c-.56.63-1.09,1.45-1.93,1.66.47-.68,1.11-1.44,1.93-1.66Z"/>
      <path class="st32" d="M537.16,164.98c.02-.73.29-1.56.97-1.93-.18.71-.6,1.32-.97,1.93Z"/>
      <path class="st2" d="M551.55,123.98c.08-.65.64-1.14,1.19-1.44-.08.67-.7,1.04-1.19,1.44Z"/>
      <path class="st29" d="M543.86,161.38c.12-.64.38-1.34.94-1.69-.12.65-.4,1.31-.94,1.69Z"/>
      <path class="st33" d="M550.57,140.26c.09-.65.76-1,1.2-1.43-.09.64-.66,1.11-1.2,1.43Z"/>
      <path class="st30" d="M549.6,141.23c-.33.56-.79,1.1-1.44,1.21.35-.54.8-1.11,1.44-1.21Z"/>
      <path class="st15" d="M543.37,156.3c-.29.53-.71.94-1.23,1.24.16-.68.58-1.04,1.23-1.24Z"/>
      <path class="st16" d="M543.61,141.95c-.36-.6-.36-1.56,0-2.16v2.16Z"/>
      <path class="st18" d="M547.21,152.96c-.24.49-.64.93-1.2.97.37-.37.71-.74,1.2-.97Z"/>
      <path class="st3" d="M550.09,125.64c.03-.53.48-.97.96-1.18-.05.53-.48.95-.96,1.18Z"/>
      <path class="st10" d="M545.77,154.18c-.37.36-.64.92-1.21.96.29-.47.63-.92,1.21-.96Z"/>
      <path class="st21" d="M561.84,117.73l-1.2-.97c.29,0,.58,0,.85.23.2.17.34.44.34.74Z"/>
      <path class="st25" d="M546.97,130.2c.05-.55.29-.92.71-1.23-.03.52-.25,1.01-.71,1.23Z"/>
      <path class="st14" d="M543.11,162.8c-.14.42-.33.96-.72,1.17-.04-.49.15-1.15.72-1.17Z"/>
      <path class="st4" d="M561.89,119.67l-.04-1.7c.45.48.28,1.17.04,1.7Z"/>
      <path class="st16" d="M544.32,143.63c-.17-.07-.49,0-.61-.25s-.11-.48-.11-.72c.3.27.52.61.72.96Z"/>
      <path class="st32" d="M549.37,126.6c0-.46.31-.77.72-.96-.03.45-.31.8-.72.96Z"/>
      <path class="st9" d="M552.01,138.59c0-.45.31-.8.75-.96-.12.43-.32.79-.75.96Z"/>
      <path class="st18" d="M540.52,159.48c-.04-.5.29-.8.7-1,0,.46-.31.81-.7,1Z"/>
      <path class="st30" d="M553.45,136.7c-.07-.53.43-.74.8-.93-.24.35-.34.7-.8.93Z"/>
      <path class="st6" d="M556.8,118.9c-.15.44-.5.74-.95.76.14-.5.61-.52.95-.76Z"/>
      <path class="st5" d="M539.31,168.55c-.25.38-.38.7-.77.94l.2-.63c.07-.22.3-.33.56-.31Z"/>
      <path class="st0" d="M548.62,127.56c.13-.43.29-.78.75-.96-.02.45-.31.81-.75.96Z"/>
      <path class="st23" d="M543.61,139.07c0-.43-.06-.87.23-1.21.06.41.11.93-.23,1.21Z"/>
      <path class="st31" d="M312.59,169.04c.13-.69.79-1.15,1.15-1.7.29-.03.35.26.1.3-.36.6-.71,1.15-1.25,1.4Z"/>
      <path class="st33" d="M304.24,121.67l.03-2.95c.3.95.25,1.99-.03,2.95Z"/>
      <path class="st23" d="M287.31,140.28c-.34-1-.09-1.8.05-2.76l-.05,2.76Z"/>
      <path class="st7" d="M317.41,155.31c-.32.56-.74.97-1.27,1.25.4-.52.45-1.04,1.27-1.25Z"/>
      <path class="st13" d="M301.52,121.05c-.45-.59-.17-1.17,0-1.74v1.74Z"/>
      <path class="st10" d="M373.52,125.72l-6.2.17c-.05-.11.05-.25.22-.25l5.98.07Z"/>
      <path class="st28" d="M377.84,125.64h-1.92c.51-.37,1.41-.37,1.92,0Z"/>
      <path class="st24" d="M395.34,102.23l.04-1.73c.28.6.12,1.16-.04,1.73Z"/>
      <path class="st29" d="M364.16,141.96c-.37.41-1.2.19-1.64.23.41-.41,1.09-.22,1.64-.23Z"/>
    </g>
  </g>
  <g id="Layer_5_xA0_Image">
    <g>
      <path class="st27" d="M50.78,5.12c1.27,0,2.5.41,3.61,1.12l3.48,2.24,4.92,1.83c4.82,1.79,7.98,4.99,8.48,10.24.56,5.94-.46,11.79-2.78,17.31-1.38,3.29-3.1,6.28-5.61,8.8l-4.88,4.9-6.93,6.04-12.71,10.51-6.03,5.27-7.63,7.66c-6.13,6.15-8.77,13.63-11.03,22.08-.42-1.92-.34-3.68-.15-5.48,1.04-9.88,3.59-16.61,10.69-23.78l5.96-6.02,2.64-2.4,1.91-1.69,11.57-9.97,2.14-1.96,2.64-2.39,5.84-5.89c3.59-3.62,7.26-10.67,7.26-15.47v-3.86c0-1.91-1.02-4.06-2.55-5.26-5.88-4.6-17.74.36-23.9,4.1-.44-.39-1.33-1.41-.85-1.96,3.34-3.12,6.88-5.85,11.42-7.74-6.43-.78-12.73,1.12-17.73,5.27l-4.52,4.54c-3.66,4.35-6.18,9.21-8,14.56-1.67,4.89-2.83,9.71-3.32,14.87l-.08,5.93c-.09.96-.17,1.92-.24,2.88l-.11.5c-.45-.01-.67-.43-.68-1.26-.02.37-.23.51-.62.53l-.81-6.49-.24-4.06c-.14-2.31-.16-4.4,0-6.71.71-10.5,3.02-18.99,9.89-27.11,5.74-6.78,13.82-10.79,22.51-11.74l6.45.08Z"/>
      <path class="st27" d="M112.92,250.87l-1.67,1.95c-.54.64-1.25.86-1.96.53l6.34-15.58c2.99-8.34,5.13-17.69,4.46-26.54-.79-10.55-4.75-20.62-11.85-28.43s-15.58-11.44-25.76-14.33c3.69-8.22,5.73-15.32,1.29-23.33-1.84-3.35-4.14-6.26-6.61-9.17l-2.98-3.51-2.07-2.25-2.89-3.12-5.24-5.51-4.09-4.32-5.05-5.27c-6.01-6.28-9.42-12.81-4.93-21.01.61-1.12.88-2.14,1.87-3.05.1,6.47-.07,11.09,4.09,16.11l1.08,1.3c1.19,1.44,2.45,2.62,3.82,3.86l2.53,2.27,8.78,7.04c3.63,2.91,7.4,5.41,10.7,8.71l6.45,6.46c4.26,4.26,8.37,12.36,8.22,18.59l-1.42,9.2,10.48,4.56c5.59,2.77,10.56,6.28,14.7,10.92,6.64,7.45,9.71,14.73,10.45,24.77v8.03c-.34,4.88-1.26,9.48-2.56,14.19-1.18,4.28-2.87,8.17-4.95,12.06-2.98,5.59-6.68,10.5-11.23,14.87Z"/>
      <path class="st27" d="M8.62,172.39c.16-.4.18-.82.08-1.24.23-.82.24-1.69.16-2.58-.12-1.41.16-2.71.2-4.06.06-1.65.12-3.18.22-4.81l.24-3.83.22-3.37.25-3.82.23-3.13.25-4.31.24-4.08.23-3.13c.43-5.97,1.28-11.76,2.93-17.51,2.69-9.41,8.57-17.28,17.79-20.79.68-.26,1.28-.53,2-.11-.99,1.1-1.88,1.96-2.95,2.76-4.31,3.22-6.98,8.76-8.6,13.94-1.71,5.5-2.16,11.09-2.38,16.8l-.23,5.98-.21,7.21-.23,11.98v12.48s.17,7.54.17,7.54l.2,2.67.6,5.62c.24,2.27,2.46,3.79,4.74,4.09,3.46.45,6.81-.15,10.18-1.12l13.04-3.72c5.99-1.71,12.56-2.1,18.02.97,2.94,1.65,5.47,3.66,7.84,6.07s4.7,4.78,6.12,7.93c-3.09-2.12-5.52-4.21-8.67-5.62-2.77-1.24-5.73-1.9-8.77-2.01-8.84-.3-13.47,2.51-20.88,5.48l-9.09,3.64c-3.17,1.27-6.35,1.62-9.84,1.47-3.88-.17-7.76-1.73-10.43-4.65-2.29-2.51-3.43-5.76-3.78-9.16l-.09-9.25c-.01-1.48.39-2.88.18-4.3Z"/>
      <path class="st27" d="M64.86,87.72c-.31-.7-.25-1.16.17-1.39-.56-.19-.84-.42-.44-.94,2.64.27,5.55-1.13,6.78-3.64,1.88-3.81,2.87-7.84,3.91-11.92l.74-2.9c.53-2.09,1.27-4.29,1.07-6.52-.28-3.13-1.06-6.06-1.05-9.25l.04-21.55c2.82,5.01,3.86,10.35,4.18,15.68l.19,3.12.11,5.95c.31,2.74.81,5.27,1.42,7.97-1.49,4.06-2.26,8.11-2.8,12.37-.36,2.83-.86,5.56-2.26,8.05-.93,1.65-2.32,3.23-4.03,4.09-2.48,1.25-5.38,1.45-8.05.87Z"/>
      <path class="st17" d="M64.59,85.4c.19.51.84.54,1.62.68-.38.55-.85.59-1.29.84.18.12.55.36.53.47-.03.15-.45.27-.6.34-2.81-.61-5.3-1.73-8.08-2.66.3-.64.8-.38,1.34-.33l6.48.66Z"/>
      <path class="st17" d="M37.71,23.04l-3.39,2.9c-.71.79-1.42,1.53-2.4,1.94.98-2.86,2.91-4.9,4.94-6.8l.72,1.04c.21.31.24.62.13.92Z"/>
      <path class="st17" d="M14.28,61.88c.22,1.99.63,4.07,0,6.07-.82-1.31-.81-2.67-.97-3.99l-.32-2.81.83-3.41.47,4.14Z"/>
      <path class="st1" d="M14.39,61.39v-2.42c-.01-.26.08-.43.24-.46v2.42c.01.26-.08.43-.24.46Z"/>
      <path class="st26" d="M8.62,172.39c-.05-.34-.02-.86.08-1.24.3.29.3,1-.08,1.24Z"/>
    </g>
  </g>
</svg>