<?xml version="1.0" encoding="UTF-8"?>
<svg xmlns="http://www.w3.org/2000/svg" version="1.1" viewBox="0 0 579.12 256.08">
  <!-- Generator: Adobe Illustrator 30.3.0, SVG Export Plug-In . SVG Version: 2.1.3 Build 182)  -->
  <defs>
    <style>
      .st0 {
        fill: #fefefe;
      }
    </style>
  </defs>
  <g id="Layer_3_xA0_Image">
    <g>
      <path class="st0" d="M110.84,253.68h-1.44l6.4-15.67c2.99-8.35,5.13-17.68,4.47-26.54-.8-10.55-4.76-20.62-11.87-28.43-7.22-7.94-15.61-11.44-25.8-14.33,3.69-8.22,5.74-15.32,1.29-23.33-1.85-3.35-4.15-6.26-6.62-9.17l-2.99-3.51-2.07-2.25-2.89-3.12-5.25-5.51-4.09-4.32-5.06-5.27c-6.02-6.28-9.43-12.81-4.94-21.01.61-1.12.88-2.14,1.88-3.05.1,6.51-.08,11.06,4.09,16.11l1.08,1.31c1.11,1.34,2.29,2.47,3.59,3.64l2.77,2.48,8.8,7.03c3.64,2.91,7.41,5.41,10.72,8.71l6.46,6.46c4.42,4.96,8.38,11.92,8.23,18.59l-1.42,9.2,10.18,4.41c5.72,2.78,10.82,6.34,15.04,11.07,6.65,7.45,9.72,14.73,10.46,24.77v8.03c-.34,4.88-1.27,9.48-2.57,14.19-1.18,4.28-2.89,8.16-4.95,12.06-3.03,5.71-6.86,10.65-11.46,15.11l-2.04,2.33Z"/>
      <path class="st0" d="M495.56,146.92c-6.6,1.84-8.37-4.5-8.68-4.44-.75.15-4.53,5.58-12.22,4.4-3.02-.46-5.11-2.68-5.21-5.62-.21-5.88,3.02-12.04,6.03-17.05,1.52-2.52,3.17-4.84,4.2-7.81-7.73,3.44-13.7,10.12-17.44,17.35l-3.35,6.48-1.92,4.34c-.34.78-1,1.97-2.12,1.62-.82-.26-1.32-1.43-2.21-1.94-4.38,2.96-8.8,4.69-12.62.5l-2.43-3.21c-.6,1.14-1.49,1.7-2.32,2.41-2.58,2.21-5.73,3.41-9.11,2.96s-5.86-2.76-6.42-6.07c-.53-3.07.08-6.07,1.32-8.94,1.11-2.55,2.72-4.7,4.24-7.02l3.75-5.75c-2.07,1.09-3.88,1.97-6.12,2.18-.7.06-1.34.06-2.03.43-1.33,3.1-3.1,5.85-4.88,8.72s-3.46,5.79-5.79,8.41c-2.55,2.86-5.61,5.17-8.94,7.08-1.85,1.06-3.97,1.64-6.03,1.12s-3.44-2.37-4.03-4.36c-1.62-5.48,1.66-11.83,4.09-17.1,1.75-3.81,3.81-7.33,6.44-10.57.73-.9,2.02-1.93,3.19-1.84,3.28,2.49.79,8.58-1.28,12.38l-5.14,9.44c-1.57,2.88-3,8.03-.92,8.93,1.16.51,2.64-.09,3.66-.64,5.77-3.14,11.3-11.17,14.28-17.13,1.54-3.08,2.19-5.15-.46-7.58-.24-4.86,3.42-11.44,7.95-12.5,1.27-.3,2.08,2.15,1.76,3.63l-1.11,5.15c-.13.63-.19,1.25.06,1.9,1.15.07,2.19-.48,3.2-1.06,2.34-1.32,6.36-4.03,7.91-2.69,2.21,1.9,2.62,5.04,1.33,7.67-2.02,4.11-6.82,8.1-9.45,14.49-1.82,4.4-1.23,9.45,1.28,9.34,1.81-.08,3.35-1.54,4.59-2.74,4.07-3.95,6.44-10.9,8.66-16.29l3.34-6.74,3.08-5.74-3.86-1.56c-.74-.3-1.56-.93-1.91-1.67-.59-1.25,5.69-1.74,8.63-1.67l2.18-4.03c1.31-2.42,2.63-4.74,4.45-6.81.42-.48.8-.72,1.41-.7,2.17.06,1.65,7.1.04,10.34l3.44,1.05c.9.28,1.98,1.76,1.8,2.7-.79.98-2.5,1.08-3.69,1.08h-3.86c-5.04,7.36-9.63,15.68-12.25,24.18-.62,2.01-.89,3.92-.67,5.99.19,1.81,1.94,2.86,3.81,2.35,2.56-.71,4.47-2.82,5.79-5.15l4.18-9,2.87-5.76,5.07-8.88,12.58-20.44,3.72-4.72c.58-.73,1.86-.97,2.5-.19,4.11,4.99-6.71,19.75-10.53,25.25l-.28.32c-.14.16.01.36.25.21l5.1-3.31c1.6-1.04,3.78-.85,5.32.21,2.85,1.95,2.08,7.22.13,10.71l-4.82,8.6c-1.7,3.03-4.63,9.72-2.74,11.27.56.46,1.59,1,2.49.67,3.79-1.38,7.58-6.67,9.29-10.58l3.36-7.66,4.21-7.52c1.42-2.54,4.18-6.69,5.95-5.15.9.79.62,2.13.74,3.15.25,2.15-.05,4.07-1.01,5.99l-2.48,4.95-3.91,7.32c-1.44,2.7-3.28,8.1-1.27,9.31,1.46.88,3.38-.23,4.56-1.15,3.34-2.61,5.45-7.97,7.27-11.7l2.13-4.38c2.2-4.53,4.8-8.72,7.8-12.81.53-.72,1.45-2,2.44-1.78,2.59,1.44,1.18,4.83,2.08,7.43,1.73-2.04,3.87-3.54,5.91-5.29,2.42-2.08,5.17-3.17,7.49-1.09,1.48,1.32,1.99,2.9,1.88,4.93-.09,1.65-.46,3.27-1.28,4.75l-4.36,7.85c-2.22,4-5.94,9.29-3.34,13.06,1.49,2.16,7.42-2.01,9.87-7.27l3.58-7.67c2.75-5.18,6.32-9.69,10.97-13.23,2.61-1.99,5.48-3.28,8.75-3.75,2.66-.38,4.78,1.94,5.67,4.64-.04.3.23.43.33.23.81-2.59,2.08-5.49,3.95-4.67.52.23,1,.65,1.23,1.32,1.14,3.45-.68,8.16-2.39,11.58l-5.67,11.34-3.7,7.84c-.1.21-.27.41-.02.55s.55-.25.7-.31c4.19-1.8,8.21-5.38,11.11-8.85,1.28-1.53,2.93-3.7,3.9-2.95.24.19.32.69.24,1.07-.62,2.81-2.13,5.19-4.1,7.18l-1.2,1.22c-1.51,1.53-3.21,2.78-5.16,3.74l-4.51,2.21c-3.48,1.71-3.2,2.02-4.94,5.58l-6.3,12.87c-2.43,4.96-10.66,15.12-14.91,8.93s-2.59-13.18,2.44-18.5c2.7-2.85,6.01-4.8,9.46-6.6,3.24-1.69,4.92-1.99,6.08-6.14.02-.09.09-.38,0-.38-.14,0-3.22,2.67-6.92,3.27-2.02.33-4.21-.54-5.39-2.15l-2.04-2.78c-.07-.1-.23-.27-.31-.27s-.23.18-.31.25l-1.89,1.74c-2.76,2.55-6.47,4.01-10.26,3.35-1.58-.27-3.64-.77-4.41-2.26-2.96-5.73.94-13.66,4.02-19.17l3.18-5.7,1.62-3.18.22-.35c.04-.07-.28-.19-.45-.12l-2.56,1.05c-6.61,3.8-14.41,15.41-17.67,22.6l-2.62,5.77c-.28.62-1.19,1.07-1.75.7-.9-.6-1.44-1.43-2.08-2.32-2.13,1.18-4.2,2.18-6.51,2.82ZM550.9,139.63l1.57-1.81c2.81-3.88,5.24-7.98,7.25-12.36,1.16-2.54,3.11-6.93,1.69-8.07-.3-.24-.87-.81-1.38-.54-2.32,1.25-4.28,2.9-6.09,4.72l-1.45,1.46c-4.32,4.35-9.12,12.42-8.93,18.72.03,1.03.67,2.31,1.92,2.05,1.6-.33,4.05-2.6,5.41-4.17ZM542.87,162.74c.8-.97,1.26-1.99,1.74-3.02l3.16-6.88c-6.26,4.31-11.34,10.79-12.19,18.19-.05.39.2.68.47.68.25,0,.48-.21.51-.61,2.77-2.3,4.7-5.12,6.31-8.36Z"/>
      <path class="st0" d="M231.24,115.83c4.15,4.78-.27,12.32-5.05,15.99-4.16,3.19-8.48,2.2-12.9-.28-.81,3.41-1.21,7.04.05,10.08,2.55,6.11,13.41,1.17,17.75-5.35,1.28-1.93,4.06-5.02,4.55-3.98.44.94.14,1.98-.33,2.97-5.45,11.37-20.91,15.14-26.85,8.15l-2.13-3.13-4.09,4.04c-2.03,1.56-4.15,2.7-6.73,2.92s-5.24-.52-6.79-2.53c-1.04-1.35-.99-3.31-1.66-4.92l-4.12,3.99c-1.83,1.77-4.07,3.06-6.7,3.37s-4.74-1.59-5.72-4.01c-2.4,2.09-5.13,3.74-8.29,4.12-3.74.45-6.8-1.53-7.66-5.17-.77-3.27-.28-6.56,1.23-9.63,1.6-3.24,3.6-6.16,5.86-8.99l2.23-2.4c-2.79,1.04-5.45,1.38-8.37,1.78l-8.42,14.8-1.49,2.82-2.84,7.27c-.22.57-.67,1.41-1.4,1.17-3.49-1.16-2.84-7.66-1.24-10.28l5.09-8.33c1.69-2.77,3.61-5.26,5.67-7.71-2.57-6.46.6-11.25,6.24-14.63.46.17,1.21.25,1.49.65.96,1.35.81,3.03.44,4.58l-1.25,5.36,7.73-3.67c.82-.39,2.06-.82,2.86-.25,2.79,2,3.05,5.62,1.21,8.42-1.51,2.32-3.22,4.34-5.06,6.45-3.17,3.64-5.14,8.04-4.77,12.93.11,1.44,1.18,2.35,2.62,2.2,1.89-.2,3.44-1.18,4.58-2.65,1.22-1.58,2.14-3.2,2.88-5.04l2.62-6.49c1.67-4.13,10.3-22.24,13.38-17.43,2.21,3.46-.74,8.91-2.82,12.65l-5.22,9.37c-1.36,2.44-2.47,7.15-.8,8.37,2.29,1.67,6.66-3.81,8.59-6.56,3.61-5.13,6.61-10.46,9.69-15.93,1.84-3.26,3.48-6.42,5.68-9.46.25-.35,1-.26,1.3,0,2.66,2.26,1.73,8.37.16,11.08l-4.65,8.04-3.2,6.39c-1.14,2.28-1.9,6.37-.52,7.27,1.8,1.16,5.22-1.48,7.13-3.53,2.94-3.17,4.51-7.08,5.57-11.24,1.23-4.83,3.91-9.02,7.35-12.49,1.85-1.87,3.73-3.43,6.1-4.48,3.53-1.56,7.36-.83,9.9,2.08l1.11,1.28ZM223.08,126.1c2.1-2.49,5.63-7.46,4.72-9.94-.33-.9-1.33-.63-1.92-.23-3.85,2.63-11.26,9.09-11.39,13.07-.06,1.79,4.2,2.3,8.59-2.9Z"/>
      <path class="st0" d="M71.25,191.35c-5.33-2.32-12.19-2.57-17.76-.96-8.32,2.39-15.24,6.65-23.44,8.91-2.43.67-4.73.78-7.3.69-3.93-.13-7.9-1.78-10.55-4.76-2.25-2.54-3.42-5.82-3.68-9.23l.02-9.87.25-5.01.21-5.3.16-3.97.27-4.06.23-3.37.26-3.82.23-3.13.24-4.08.24-4.08.28-4.01c.43-6.31,1.27-12.44,3.01-18.53,2.66-9.33,8.51-17.19,17.65-20.72.74-.29,1.38-.62,2.17-.18-.99,1.1-1.89,1.97-2.95,2.76-4.32,3.22-6.99,8.76-8.61,13.94-1.72,5.5-2.16,11.09-2.39,16.8l-.23,5.98-.21,7.21-.23,11.98v12.48s.17,7.54.17,7.54l.2,2.67.6,5.62c.24,2.27,2.47,3.79,4.75,4.09,3.46.45,6.82-.15,10.19-1.12l13.06-3.72c5.3-1.51,11.63-2.06,16.61.26,3.7,1.72,6.79,4.22,9.63,7.13,2.24,2.29,4.43,4.58,5.78,7.57-3.14-2.16-5.62-4.29-8.84-5.7Z"/>
      <path class="st0" d="M347.97,132.36c.27,5.43-6.59,11.56-11.34,13.7l-4.44,2c-1.64.74-2.36,1.71-3.05,3.28l-4.24,9.63c-2.93,6.66-7.07,13.96-14.22,16.33-1.69-.84-3.49-1.72-4.37-3.42-3.01-5.78-.95-12.45,3.52-17.2,5.04-5.36,10.96-6.56,13.94-9.54,1.03-1.04,1.46-2.56,1.81-4.03-4.23,3.28-10.01,6.56-12.88,1.58-1.17-2.03-1.56-4.41-1.03-6.79.63-3.75,2.08-7.15,3.82-10.63l-6.56,1.34c-.86,2.61-1.76,5.01-3.09,7.31-1.87,3.56-4.2,6.73-7.53,8.99s-7.19,2.63-10.52.8c-6.32-3.48-6.76-11.01-4.51-17.48,1.63-4.69,4.38-8.7,8.04-12.13,2.35-2.21,5.26-3.79,8.59-4.09,3.77-.34,8.09,4.92,9.26,8.85.49,1.67.35,3.25.16,4.9,3.85-.94,6.85-3.08,9.33-5.82l3.97-4.95c.79-.98,1.99-2.67,3.33-2.64,2.13.05,2.48,3.77,1.68,6.5-.75,2.54-2.05,4.69-3.26,7.05l-5.55,10.74c-.88,1.71-1.39,3.59-1.37,5.48.02,1.23,1.2,2.04,2.32,1.71,2.36-.7,6.34-5.42,7.66-7.72l9.78-17.02,2.79-4.94c.55-.97,1.76-2.19,3.04-1.85s1.48,2.13,1.51,3.23c.13,4.56-2.95,9.44-4.88,13.42l-7.65,15.73c4.14-1.99,8.92-5.82,11.73-9.24l2.28-2.77c.33-.4,1.68-.91,1.96-.31ZM303.49,116.64c-2.64,1.28-2.61,5.48-.25,7.45,1.3-1.75,1.36-5.63.25-7.45ZM294.21,141.19l2.59-2.56c2.8-3.51,4.65-7.5,6.3-11.69-.97-.59-1.56-1.12-2.18-1.87-1.6-1.95-3.13-3.83-4.14-6.26l-4.74,6.46c-2.94,4.01-4.6,8.79-4.67,13.79-.02,1.48.02,2.93,1.14,3.95,1.07.97,4.19-.33,5.7-1.82ZM311.59,170.06c2.78-3.43,5.12-6.87,7.19-10.65,1.25-2.27,2.46-4.51,2.68-7.38-3.91,2.85-7.12,6.26-9.66,10.2-1.75,2.71-3.79,7.49-2.51,10.21l2.3-2.38Z"/>
      <path class="st0" d="M51.13,49.66l5.85-5.89c4.03-4.05,6.65-9.72,7.27-15.47v-3.86c0-1.9-1.02-4.06-2.56-5.26-5.8-4.5-17.68.2-23.76,4.09l-3.43,2.82c-.86.71-1.45,1.66-2.55,2.03,1.16-3.33,3.58-5.58,6.09-7.84,3.07-2.76,6.3-4.98,10.29-6.71-6.43-.76-12.74,1.12-17.75,5.27l-4.53,4.54c-3.67,4.35-6.19,9.21-8.01,14.56-1.67,4.89-2.85,9.71-3.32,14.88l-.13,8.31c-.01.75-.32,1.35-.15,2.13.35,1.58.34,3.24-.13,4.91-.73-.97-.78-2.18-.93-3.39l-1.2-9.87-.24-4.07c-.4-6.67.44-14.93,2.64-21.18s5.86-11.96,10.98-16.35c7.49-6.42,17.53-9.25,27.23-7.58,1.9.33,3.16,2.22,4.83,2.85l5.24,1.97c4.84,1.82,7.99,4.96,8.49,10.23.56,5.94-.46,11.79-2.78,17.31-1.38,3.29-3.29,6.09-5.62,8.8l-4.89,4.9-6.94,6.04-12.73,10.51-6.04,5.27-7.64,7.66c-6.14,6.16-8.78,13.62-11.05,22.08-.43-1.99-.34-3.81-.13-5.68.56-5.11,1.57-10.13,3.98-14.7,1.77-3.36,4.23-6.05,6.71-8.88l5.97-6.02,2.64-2.4,1.91-1.69,11.58-9.97,2.14-1.96,2.64-2.39Z"/>
      <path class="st0" d="M381.29,141.75c-4.46,2.82-9.42,5.01-14.69,5.3-4.6.26-11.35-3.9-10.27-8.35l1.55-6.4,3.3-8.47,4.39-8.78c2.24-4.47,4.83-8.6,7.8-12.54-2.63-.62-5.67-2.08-5.59-4.41,1.92-1.11,3.94-1.75,6.08-2.35l12.18-3.38,3.34-.32c2.85-.27,5.85.84,7.54,3.26s2.13,5.49,2.06,8.53c-.08,3.93-1.59,7.54-4.11,10.54-2.84,3.39-6.29,5.98-10.2,8.01l-1.81.94,2.79,2.88c3.26,3.37,1.81,10.04-2.23,13.65l-2.13,1.9ZM373.77,120l5.28-2.28c6.32-2.72,13.79-7.96,16.04-14.61.51-1.52.3-3.18-.58-4.4-1.59-.85-3.22-.73-4.93-.42-3.56.63-6.87,1.72-10.23,2.92-.37,3.77-1.77,7.11-3.66,10.29l-3.58,6.01c-.64,1.07-1.19,2.07-1.56,3.37l3.22-.88ZM370.21,140.55c5.14-2.03,11.37-5.64,12.65-11.04.38-1.59-.46-2.67-1.8-3.26-1.48-.66-3.02-.72-4.65-.62l-3.6.21-5.4.09-1.73,3.64c-1.85,3.9-3.58,7.81-4.13,12.15-.07.53.92.64,1.21.22,2.66.17,5.06-.36,7.46-1.38Z"/>
      <path class="st0" d="M248.23,126.65c.83-.64,2.16-1.34,3.05-.87.66.44.35,1.7.25,2.35l-1.33,8.09c-.32,1.92-.55,4.06.43,5.86,1.52,2.77,5.89,2.7,9.12-.19,2.74-2.46,4.81-5.27,6.71-8.41l4.19-8.03,1.94-4.08,3.99-7.99,6.08-12.1,1.35-2.75c1.06-2.16,2.26-4.33,4.24-5.87.9-.7,3.06,1.82,2.3,6.86-.37,2.45-1.46,4.45-2.45,6.66l-4.75,10.62-2.06,4.4-2.41,4.81c-2.49,4.97-5.2,9.73-8.78,13.97l-3.21,3.31c-2.86,2.41-6.16,4.06-9.94,4.23-4.46.2-8.82-1.3-11.32-5.04-2.93-4.39-2.04-12.22,2.6-15.82Z"/>
      <path class="st0" d="M131.53,139.47l-2.52,5.32c-.27.58-.85,1.43-1.67,1.37-.75-.05-1.82-1.22-1.82-2.03l.02-4.06c.85-4.52,2.52-8.61,4.46-12.81,4.14-8.95,9.02-17.25,14.11-25.83l-4.71.48c-4.46.45-8.45-1.95-10.11-6.15l3.37-.14c1.24-.05,2.36-.12,3.61-.25l2.39-.24,14.62-1.9c4.95-.64,12.85-.12,12.96,5.04-1.5.81-3.93.6-5.78.77l-2.38.22c-2.55.23-5.16.23-7.68,1.04.08,1.08-.03,2.09-.38,3.14-1.17,3.48-2.77,6.61-4.56,9.82l-6.71,11.98-1.36,2.5-5.87,11.73Z"/>
      <path class="st0" d="M73,87.09c-5.45,2.73-10.66.15-16.16-1.79.3-.61.8-.38,1.35-.32l5.88.64c2.89.32,6.04-.9,7.4-3.62,1.8-3.62,2.74-7.45,3.78-11.35.85-3.26,1.67-6.37,2.1-9.75-.67-3.2-.86-6.23-1.25-9.49l.11-21.56c3.18,5.53,4.19,12.5,4.33,18.37l.15,6.38c.07,2.75.81,5.28,1.43,7.97-1.49,4.06-2.26,8.11-2.8,12.37-.36,2.83-.87,5.56-2.27,8.05-.93,1.65-2.32,3.23-4.03,4.09Z"/>
      <path class="st0" d="M409.37,113.3c-1.63.45-4.58-2.62-4.25-6.17.14-1.51.98-3.08,2.52-3.48.88-.22,2.27.15,2.88.82,1.14,1.24,1.94,3.07,1.75,4.72-.2,1.74-1.15,3.62-2.91,4.1Z"/>
      <path class="st0" d="M505.91,113.04c-1.75.66-3.64-.72-4.21-2.33-.9-2.57-.11-5.31,1.92-7.08,2.16.01,4.01,1.27,4.69,3.38.72,2.23-.1,5.17-2.39,6.04Z"/>
    </g>
  </g>
  <g id="Layer_5_xA0_Image">
    <g>
      <path class="st0" d="M50.82,5.13c1.31,0,2.48.41,3.58,1.11l3.48,2.24,4.92,1.83c4.82,1.79,7.98,4.99,8.48,10.24.56,5.94-.46,11.79-2.78,17.31-1.38,3.29-3.1,6.28-5.61,8.8l-4.88,4.9-6.93,6.04-12.71,10.51-6.03,5.27-7.63,7.66c-6.13,6.15-8.77,13.63-11.03,22.08-.42-1.92-.34-3.68-.15-5.48,1.04-9.88,3.59-16.61,10.69-23.78l5.96-6.02,2.64-2.4,1.91-1.69,11.57-9.97,2.14-1.96,2.64-2.39,5.84-5.89c3.59-3.62,7.26-10.67,7.26-15.47v-3.86c0-1.9-1.02-4.06-2.56-5.26-5.79-4.5-17.66.2-23.73,4.09l-3.42,2.82c-.86.71-1.45,1.66-2.55,2.03,1.14-3.27,3.5-5.5,5.96-7.73,3.1-2.8,6.36-5.08,10.4-6.81-6.43-.77-12.72,1.12-17.72,5.27l-4.52,4.54c-3.66,4.35-6.18,9.21-8,14.56-1.67,4.89-2.84,9.71-3.32,14.88l-.14,8.31c-.01.83-.29,1.48-.11,2.34.33,1.55.3,3.23-.19,4.71-.75-1.16-.77-2.37-.92-3.58l-1.18-9.69-.24-4.07c-.14-2.31-.16-4.4,0-6.71.71-10.5,3.01-18.99,9.89-27.11,5.74-6.78,13.82-10.79,22.54-11.65h6.45Z"/>
      <path class="st0" d="M112.92,250.87l-1.67,1.95c-.54.64-1.25.86-1.96.53l6.34-15.58c2.99-8.34,5.13-17.69,4.46-26.54-.79-10.55-4.75-20.62-11.85-28.43s-15.58-11.44-25.76-14.33c3.69-8.22,5.73-15.32,1.29-23.33-1.84-3.35-4.14-6.26-6.61-9.17l-2.98-3.51-2.07-2.25-2.89-3.12-5.24-5.51-4.09-4.32-5.05-5.27c-6.01-6.28-9.42-12.81-4.93-21.01.61-1.12.88-2.14,1.87-3.05.1,6.47-.07,11.09,4.09,16.11l1.08,1.3c1.19,1.44,2.45,2.62,3.82,3.86l2.53,2.27,8.78,7.04c3.63,2.91,7.4,5.41,10.7,8.71l6.45,6.46c4.26,4.26,8.37,12.36,8.22,18.59l-1.42,9.2,10.48,4.56c5.59,2.77,10.56,6.28,14.7,10.92,6.64,7.45,9.71,14.73,10.45,24.77v8.03c-.34,4.88-1.26,9.48-2.56,14.19-1.18,4.28-2.87,8.17-4.95,12.06-2.98,5.59-6.68,10.5-11.23,14.87Z"/>
      <path class="st0" d="M71.16,191.11c-5.32-2.32-12.18-2.57-17.73-.97-8.31,2.39-15.22,6.65-23.4,8.91-2.42.67-4.72.78-7.29.69-3.93-.13-7.89-1.78-10.53-4.76-2.25-2.54-3.41-5.82-3.68-9.23l.02-9.87.25-5.01.21-5.3.16-3.97.27-4.06.23-3.37.26-3.82.23-3.13.24-4.08.24-4.08.28-4.01c.43-6.31,1.27-12.44,3-18.53,2.66-9.33,8.5-17.19,17.62-20.72.74-.29,1.38-.62,2.17-.18-.98,1.1-1.89,1.97-2.95,2.76-4.31,3.22-6.98,8.76-8.6,13.94-1.71,5.5-2.16,11.09-2.38,16.8l-.23,5.98-.21,7.21-.23,11.98v12.48s.17,7.54.17,7.54l.2,2.67.6,5.62c.24,2.27,2.46,3.79,4.74,4.09,3.46.45,6.81-.15,10.18-1.12l13.04-3.72c5.45-1.55,11.38-2.02,16.6.24,3.67,1.77,6.77,4.22,9.61,7.15,2.22,2.29,4.43,4.57,5.76,7.57-3.13-2.16-5.61-4.29-8.83-5.7Z"/>
      <path class="st0" d="M72.91,86.85c-5.44,2.73-10.64.15-16.13-1.79.3-.61.79-.38,1.35-.32l5.87.64c2.89.32,6.03-.9,7.39-3.62,1.8-3.62,2.74-7.45,3.77-11.35.85-3.26,1.66-6.37,2.09-9.75-.67-3.2-.86-6.23-1.25-9.49l.11-21.56c3.17,5.53,4.18,12.5,4.32,18.37l.15,6.38c.06,2.75.81,5.28,1.42,7.97-1.49,4.06-2.26,8.11-2.8,12.37-.36,2.83-.86,5.56-2.26,8.05-.93,1.65-2.32,3.23-4.02,4.09Z"/>
    </g>
  </g>
</svg>