<svg xmlns="http://www.w3.org/2000/svg" viewBox="0 0 128 128" fill="none">
  <!-- Stylized birthing figure / maternal mark -->
  <circle cx="64" cy="64" r="60" fill="#B9B7D4" opacity="0.15"/>
  <path fill="#7A75B5" d="M64 24c-8 0-14.5 6-15.5 14-6 2-10.5 7.5-10.5 14 0 5 2.5 9.5 6.5 12-1 2.5-1.5 5-1.5 7.5 0 12 9 22 20.5 22s20.5-10 20.5-22c0-2.5-.5-5-1.5-7.5 4-2.5 6.5-7 6.5-12 0-6.5-4.5-12-10.5-14C78.5 30 72 24 64 24Zm0 6c5 0 9.5 3.5 10.5 8.5C72.5 39 70 40.5 67 41c-1.5.5-2.5 2-2 3.5.5 1.5 2 2.5 3.5 2 4.5-1 8-4 10-7.5 2.5 1.5 4 4 4 7 0 3.5-2 6.5-5 8-1 .5-1.5 1.5-1.5 2.5.5 3 1 6 1 9 0 8.5-6.5 15.5-15 15.5S47 71 47 62.5c0-3 .5-6 1-9 0-1-.5-2-1.5-2.5-3-1.5-5-4.5-5-8 0-3 1.5-5.5 4-7 2 3.5 5.5 6.5 10 7.5 1.5.5 3-.5 3.5-2 .5-1.5-.5-3-2-3.5-3-.5-5.5-2-7.5-2.5C54.5 33.5 59 30 64 30Z"/>
  <!-- Small heart accent -->
  <circle cx="92" cy="92" r="14" fill="#D8A0C4"/>
  <path fill="#FAF8F5" d="M92 86c-2-2-5-2-7 0s-2 5 0 7l7 7 7-7c2-2 2-5 0-7s-5-2-7 0Z"/>
</svg>