<svg xmlns="http://www.w3.org/2000/svg" viewBox="0 0 288 288" width="128" height="128">
  <!--
    True Joy Birthing — Icon Mark (favicon)
    Derived from approved archive original: True Joy Birthing - Icon.svg
    Portrait icon (168×288) centered in square 288×288 viewport
  -->
  <g transform="translate(60, 0)">
<!-- Generator: Adobe Illustrator 30.3.0, SVG Export Plug-In . SVG Version: 2.1.3 Build 182)  -->
  <defs>
    <style>
      .st0 {
        fill: #e0deed;
      }

      .st1 {
        fill: #a6a6c4;
      }

      .st2 {
        fill: #d8d5e9;
      }

      .st3 {
        fill: #bab6d9;
      }
    </style>
  </defs>
  <path class="st3" d="M124.56,268.32h-1.44l6.4-15.69c2.99-8.36,5.14-17.7,4.47-26.57-.8-10.56-4.76-20.64-11.88-28.46s-15.61-11.45-25.81-14.35c3.69-8.23,5.74-15.34,1.29-23.35-1.85-3.35-4.15-6.27-6.63-9.18l-2.99-3.51-2.07-2.26-2.89-3.12-5.25-5.52-4.1-4.32-5.06-5.28c-6.02-6.28-9.44-12.82-4.94-21.03.61-1.12.88-2.14,1.88-3.06.1,6.51-.08,11.07,4.1,16.13l1.08,1.31c1.11,1.35,2.29,2.47,3.59,3.64l2.77,2.49,8.8,7.04c3.64,2.91,7.41,5.41,10.72,8.72l6.47,6.47c4.42,4.96,8.38,11.93,8.23,18.61l-1.42,9.21,10.19,4.41c5.73,2.78,10.82,6.35,15.04,11.08,6.65,7.46,9.73,14.75,10.47,24.79v8.04c-.34,4.88-1.27,9.49-2.57,14.2-1.18,4.29-2.89,8.17-4.96,12.08-3.03,5.72-6.87,10.66-11.46,15.13l-2.04,2.34Z"/>
  <path class="st3" d="M22.21,200.85l-.05-10.27.15-3.38c.19-.39.17-.83.07-1.24.23-.82.24-1.7.16-2.59-.12-1.41.16-2.71.2-4.07.06-1.66.12-3.19.22-4.81l.24-3.83.22-3.38.25-3.82.23-3.13.25-4.31.24-4.08.23-3.14c.44-5.98,1.29-11.77,2.93-17.53,2.69-9.42,8.59-17.3,17.82-20.81.68-.26,1.28-.54,2-.11-.99,1.1-1.89,1.97-2.95,2.76-4.32,3.22-7,8.77-8.61,13.96-1.72,5.51-2.16,11.1-2.39,16.81l-.23,5.99-.21,7.21-.23,11.99v12.49s.17,7.54.17,7.54l.2,2.67.6,5.63c.24,2.27,2.47,3.79,4.75,4.09,3.46.45,6.82-.15,10.2-1.12l13.06-3.72c6-1.71,12.58-2.1,18.05.97,2.95,1.65,5.48,3.66,7.85,6.07s4.71,4.78,6.13,7.93c-3.1-2.12-5.53-4.22-8.69-5.63-2.77-1.24-5.74-1.91-8.79-2.01-8.86-.3-13.5,2.52-20.92,5.48l-9.1,3.64c-3.18,1.27-6.36,1.63-9.86,1.47-3.89-.17-7.78-1.72-10.45-4.66-2.28-2.5-3.46-5.8-3.78-9.08Z"/>
  <path class="st3" d="M64.54,19.76c1.27,0,2.51.41,3.62,1.12l3.49,2.24,4.93,1.83c4.83,1.79,8,4.99,8.5,10.25.56,5.95-.46,11.8-2.78,17.32-1.38,3.29-3.11,6.29-5.62,8.81l-4.89,4.91-6.94,6.05-12.73,10.52-6.04,5.28-7.64,7.67c-6.14,6.16-8.79,13.64-11.05,22.1-.42-1.92-.34-3.68-.15-5.49,1.04-9.89,3.6-16.63,10.71-23.81l5.97-6.03,2.64-2.4,1.91-1.69,11.59-9.98,2.15-1.96,2.64-2.4,5.85-5.9c3.59-3.62,7.28-10.68,7.28-15.49v-3.87c0-1.91-1.02-4.07-2.56-5.26-5.89-4.6-17.77.36-23.95,4.11-.44-.39-1.33-1.41-.85-1.96,3.35-3.12,6.9-5.85,11.44-7.75-6.44-.78-12.75,1.12-17.76,5.27l-4.53,4.54c-3.67,4.36-6.19,9.22-8.02,14.58-1.67,4.89-2.84,9.72-3.32,14.88l-.08,5.94c-.09.96-.17,1.92-.24,2.88l-.11.5c-.45-.01-.67-.43-.68-1.26-.02.37-.23.51-.62.53l-.81-6.5-.24-4.06c-.14-2.31-.16-4.41,0-6.72.71-10.51,3.02-19.01,9.91-27.14,5.75-6.79,13.85-10.8,22.55-11.75l6.46.08Z"/>
  <path class="st3" d="M78.65,102.44c-.31-.7-.25-1.16.17-1.39-.56-.19-.84-.42-.44-.94,2.65.27,5.56-1.13,6.8-3.64,1.88-3.81,2.88-7.85,3.92-11.94l.74-2.9c.53-2.09,1.27-4.29,1.08-6.52-.28-3.13-1.06-6.07-1.06-9.26l.04-21.57c2.82,5.02,3.87,10.36,4.19,15.7l.19,3.12.11,5.95c.31,2.74.81,5.28,1.43,7.98-1.49,4.06-2.26,8.12-2.8,12.39-.36,2.83-.87,5.57-2.27,8.06-.93,1.66-2.32,3.23-4.03,4.09-2.48,1.25-5.4,1.45-8.06.88Z"/>
  <path class="st1" d="M78.38,100.12c.19.51.85.54,1.63.68-.38.55-.85.59-1.29.84.18.12.55.36.53.47-.03.15-.45.27-.6.34-2.81-.61-5.31-1.74-8.1-2.66.3-.64.8-.38,1.35-.33l6.49.66Z"/>
  <path class="st1" d="M51.45,37.7l-3.4,2.9c-.71.8-1.42,1.53-2.4,1.94.98-2.86,2.92-4.91,4.95-6.8l.72,1.04c.21.31.24.62.13.92Z"/>
  <path class="st1" d="M27.97,76.58c.22,1.99.63,4.08,0,6.08-.82-1.31-.82-2.67-.97-4l-.32-2.81.83-3.42.47,4.15Z"/>
  <path class="st0" d="M28.08,76.08v-2.42c-.01-.26.08-.44.24-.46v2.42c.01.26-.08.43-.24.46Z"/>
  <path class="st2" d="M22.31,187.2c.01-.34-.04-.85.07-1.24.3.29.3,1.01-.07,1.24Z"/>
  </g>
</svg>