<svg xmlns="http://www.w3.org/2000/svg" viewBox="0 0 128 128" fill="none">
  <!--
    True Joy Birthing — Icon Mark v2 (favicon)
    "The Cradle" — favicon-safe variant: no background circle.
    Favicon context: no heart detail visible at 16px (per LOGO.md §Minimum Sizes).

    Colors: @theme tokens only
    - Outer arms: tjb-lavender-500 (#8E8CB5)
    - Inner seed: tjb-rose-400 (#D8A0C4)
  -->

  <!-- Left arm — cradling curve -->
  <path
    d="M38 82 C30 72 26 58 30 44 C32 36 38 30 46 28"
    stroke="#8E8CB5"
    stroke-width="5.5"
    stroke-linecap="round"
    fill="none"
  />

  <!-- Right arm — cradling curve -->
  <path
    d="M90 82 C98 72 102 58 98 44 C96 36 90 30 82 28"
    stroke="#8E8CB5"
    stroke-width="5.5"
    stroke-linecap="round"
    fill="none"
  />

  <!-- Center seed / child shape -->
  <ellipse cx="64" cy="58" rx="14" ry="18" fill="#D8A0C4"/>

  <!-- Warm heart beat — preserved for app-icon and larger contexts -->
  <path
    d="M64 76 C61 73 56 70 56 67 C56 64 59 62 62 64 L64 66 L66 64 C69 62 72 64 72 67 C72 70 67 73 64 76Z"
    fill="#8E8CB5"
    opacity="0.6"
  />
</svg>